<svg width="56" height="56" viewBox="0 0 56 56" fill="none" xmlns="http://www.w3.org/2000/svg">
<g filter="url(#filter0_d_1_77)">
<path d="M47 0H9C6.23858 0 4 2.23858 4 5V43C4 45.7614 6.23858 48 9 48H47C49.7614 48 52 45.7614 52 43V5C52 2.23858 49.7614 0 47 0Z" fill="white"/>
<path d="M43.5 23.5H12.5C12.2239 23.5 12 23.7239 12 24C12 24.2761 12.2239 24.5 12.5 24.5H43.5C43.7761 24.5 44 24.2761 44 24C44 23.7239 43.7761 23.5 43.5 23.5Z" fill="black"/>
<path d="M13 26V22C13 21.7239 12.7761 21.5 12.5 21.5C12.2239 21.5 12 21.7239 12 22V26C12 26.2761 12.2239 26.5 12.5 26.5C12.7761 26.5 13 26.2761 13 26Z" fill="black"/>
<path d="M44 26.5V22.5C44 22.2239 43.7761 22 43.5 22C43.2239 22 43 22.2239 43 22.5V26.5C43 26.7761 43.2239 27 43.5 27C43.7761 27 44 26.7761 44 26.5Z" fill="black"/>
</g>
<defs>
<filter id="filter0_d_1_77" x="0" y="0" width="56" height="56" filterUnits="userSpaceOnUse" color-interpolation-filters="sRGB">
<feFlood flood-opacity="0" result="BackgroundImageFix"/>
<feColorMatrix in="SourceAlpha" type="matrix" values="0 0 0 0 0 0 0 0 0 0 0 0 0 0 0 0 0 0 127 0" result="hardAlpha"/>
<feOffset dy="4"/>
<feGaussianBlur stdDeviation="2"/>
<feComposite in2="hardAlpha" operator="out"/>
<feColorMatrix type="matrix" values="0 0 0 0 0 0 0 0 0 0 0 0 0 0 0 0 0 0 0.25 0"/>
<feBlend mode="normal" in2="BackgroundImageFix" result="effect1_dropShadow_1_77"/>
<feBlend mode="normal" in="SourceGraphic" in2="effect1_dropShadow_1_77" result="shape"/>
</filter>
</defs>
</svg>
